<svg width="30" height="30" viewBox="0 0 30 30" fill="none" xmlns="http://www.w3.org/2000/svg">
<path fill-rule="evenodd" clip-rule="evenodd" d="M12.1547 5.12062C12.1547 5.12062 9.73221 5.12437 7.4869 5.12812C4.64253 5.13375 2.34003 7.44094 2.34003 10.2844V22.5C2.34003 23.8678 2.88284 25.1794 3.85034 26.1459C4.8169 27.1134 6.12846 27.6562 7.49628 27.6562H19.6866C22.5347 27.6562 24.8428 25.3481 24.8428 22.5C24.8428 20.2453 24.8428 17.8088 24.8428 17.8088C24.8428 17.0325 24.2128 16.4025 23.4366 16.4025C22.6613 16.4025 22.0303 17.0325 22.0303 17.8088V22.5C22.0303 23.7947 20.9813 24.8437 19.6866 24.8437H7.49628C6.87471 24.8437 6.27846 24.5972 5.83878 24.1575C5.39909 23.7178 5.15253 23.1216 5.15253 22.5V10.2844C5.15253 8.99156 6.19971 7.94344 7.49253 7.94063C9.7369 7.93688 12.1603 7.93312 12.1603 7.93312C12.9366 7.93125 13.5647 7.30031 13.5638 6.52406C13.5628 5.74781 12.931 5.11875 12.1547 5.12062Z" fill="#1A0F13"/>
<path fill-rule="evenodd" clip-rule="evenodd" d="M18.7931 6.01032L12.3759 12.4284C12.2475 12.5569 12.1584 12.72 12.1219 12.8981L11.1084 17.7281C11.0437 18.0366 11.1384 18.3572 11.3597 18.5803C11.5819 18.8044 11.9006 18.9019 12.21 18.84L17.0794 17.8669C17.2603 17.8303 17.4272 17.7413 17.5584 17.61L23.9756 11.1928L18.7931 6.01032ZM20.1197 4.68469L25.3012 9.86719L26.3437 8.82563C27.7744 7.39407 27.7744 5.07469 26.3437 3.64407C26.3428 3.64407 26.3428 3.64313 26.3428 3.64313C24.9112 2.2125 22.5919 2.2125 21.1612 3.64313L20.1197 4.68469Z" fill="#1A0F13"/>
</svg>
