<svg width="30" height="30" viewBox="0 0 30 30" fill="none" xmlns="http://www.w3.org/2000/svg">
<path d="M26.25 11.25V3.75M26.25 3.75H18.75M26.25 3.75L16.25 13.75M12.5 6.25H9.75C7.6498 6.25 6.5997 6.25 5.79754 6.65873C5.09193 7.01825 4.51825 7.59193 4.15873 8.29754C3.75 9.0997 3.75 10.1498 3.75 12.25V20.25C3.75 22.3503 3.75 23.4002 4.15873 24.2025C4.51825 24.9081 5.09193 25.4818 5.79754 25.8413C6.5997 26.25 7.6498 26.25 9.75 26.25H17.75C19.8502 26.25 20.9002 26.25 21.7025 25.8413C22.4081 25.4818 22.9818 24.9081 23.3413 24.2025C23.75 23.4002 23.75 22.3503 23.75 20.25V17.5" stroke="black" stroke-width="3" stroke-linecap="round" stroke-linejoin="round"/>
</svg>
